<svg width="44" height="45" viewBox="0 0 44 45" fill="none" xmlns="http://www.w3.org/2000/svg">
<g clip-path="url(#clip0)">
<path d="M32.2671 0.593933V12.3267H43.9999L32.2671 0.593933Z" fill="#59C8E0"/>
<path d="M14.6269 42.7704L12.3801 33.7566C13.7822 32.422 14.668 30.5448 14.668 28.4593C14.668 24.4173 11.3769 21.1263 7.335 21.1263C3.29305 21.1263 0.00200226 24.4173 0.00200226 28.4593C0.00200226 30.5448 0.887828 32.422 2.2899 33.7566L0.043067 42.7704C-0.0947933 43.3247 0.104664 43.9114 0.55051 44.2722C0.996357 44.63 1.61233 44.6916 2.12271 44.4393L7.335 41.8317L12.5444 44.4393C12.7526 44.5391 12.9785 44.5919 13.2014 44.5919C13.527 44.5919 13.8526 44.4833 14.1195 44.2722C14.5653 43.9114 14.7648 43.3277 14.6269 42.7704ZM7.335 32.8591C4.90924 32.8591 2.9352 30.885 2.9352 28.4593C2.9352 26.0335 4.90924 24.0595 7.335 24.0595C9.76076 24.0595 11.7348 26.0335 11.7348 28.4593C11.7348 30.885 9.76076 32.8591 7.335 32.8591Z" fill="#178EA8"/>
<path d="M32.2673 15.2599C30.6512 15.2599 29.3342 13.9429 29.3342 12.3267V0.593933H11.735C10.1188 0.593933 8.80176 1.91094 8.80176 3.52713V18.3427C13.7647 19.0614 17.6014 23.2998 17.6014 28.4593C17.6014 30.6768 16.8974 32.7829 15.595 34.534L17.3726 41.6587H41.0669C42.6861 41.6587 44.0001 40.3446 44.0001 38.7255V15.2599H32.2673ZM16.1348 12.3267C15.3252 12.3267 14.6682 11.6697 14.6682 10.8601C14.6682 10.0506 15.3252 9.39353 16.1348 9.39353H24.9344C25.7439 9.39353 26.401 10.0506 26.401 10.8601C26.401 11.6697 25.7439 12.3267 24.9344 12.3267H16.1348ZM36.6671 29.9259H22.0012C21.1916 29.9259 20.5346 29.2689 20.5346 28.4593C20.5346 27.6498 21.1916 26.9927 22.0012 26.9927H36.6671C37.4767 26.9927 38.1337 27.6498 38.1337 28.4593C38.1337 29.2689 37.4767 29.9259 36.6671 29.9259ZM36.6671 21.1263H19.068C18.2584 21.1263 17.6014 20.4693 17.6014 19.6597C17.6014 18.8502 18.2584 18.1931 19.068 18.1931H36.6671C37.4767 18.1931 38.1337 18.8502 38.1337 19.6597C38.1337 20.4693 37.4767 21.1263 36.6671 21.1263Z" fill="#59C8E0"/>
</g>
<defs>
<clipPath id="clip0">
<rect width="44" height="44" fill="white" transform="translate(0 0.593262)"/>
</clipPath>
</defs>
</svg>
