<svg width="46" height="46" viewBox="0 0 50 60" fill="none" xmlns="http://www.w3.org/2000/svg">
<path d="M49.7717 50.4613C49.7717 50.4613 43.2769 39.2989 42.1119 37.2969C43.4374 36.8925 44.8494 36.5355 45.4361 35.5225C46.4138 33.8345 44.6734 31.0656 45.1304 29.2564C45.6012 27.3943 48.3802 25.7831 48.3802 23.8904C48.3802 22.0463 45.5071 19.8921 45.036 18.0409C44.5758 16.232 46.3111 13.4601 45.3301 11.7742C44.3492 10.0882 41.082 10.2267 39.7371 8.93252C38.3532 7.60071 38.3575 4.34218 36.6884 3.44967C35.0125 2.55383 32.2887 4.36432 30.428 3.93546C28.5884 3.5115 26.9449 0.74176 25.0234 0.74176C23.0734 0.74176 19.9719 3.88359 19.4855 3.99665C17.6257 4.429 14.8985 2.62293 13.2243 3.52257C11.5568 4.41808 11.567 7.67693 10.1857 9.01096C8.843 10.3075 5.57561 10.175 4.59771 11.8629C3.61996 13.5505 5.36039 16.3189 4.90354 18.129C4.44542 19.9438 1.56958 21.7826 1.56958 23.8813C1.56958 25.7742 4.3556 27.3804 4.82922 29.2415C5.28955 31.0504 3.55433 33.822 4.53524 35.5085C5.06926 36.4265 6.28089 36.8034 7.49094 37.1656C7.63216 37.2079 7.89925 37.3658 7.71834 37.6295C6.89051 39.0584 0.227484 50.5578 0.227484 50.5578C-0.302584 51.4724 0.127859 52.2565 1.18373 52.3009L6.35206 52.5164C7.40792 52.5609 8.73246 53.3282 9.29606 54.2221L12.0539 58.5983C12.6175 59.4923 13.5118 59.4755 14.0417 58.561C14.0417 58.561 21.7582 45.2388 21.7614 45.235C21.9162 45.0541 22.0718 45.0912 22.1463 45.1545C22.9906 45.8734 24.1676 46.5905 25.1499 46.5905C26.1132 46.5905 27.0053 45.9154 27.8877 45.1625C27.9595 45.1013 28.1342 44.9759 28.262 45.2362C28.264 45.2403 35.972 58.4897 35.972 58.4897C36.5034 59.4031 37.3978 59.4186 37.9596 58.5235L40.7097 54.1421C41.2718 53.2475 42.5949 52.4772 43.6507 52.4312L48.8186 52.206C49.874 52.1597 50.303 51.3746 49.7717 50.4613ZM33.5647 38.4777C27.8504 41.8022 20.9913 41.4459 15.7522 38.1413C8.07557 33.2241 5.54968 23.0522 10.1645 15.0871C14.832 7.03016 25.0923 4.18721 33.2219 8.61483C33.2646 8.63808 33.3068 8.66211 33.3492 8.68583C33.4094 8.7192 33.4695 8.75304 33.5295 8.7872C36.0375 10.2332 38.2123 12.3318 39.7696 15.0085C44.5292 23.1898 41.7458 33.7181 33.5647 38.4777Z" fill="#59C8E0"/>
<path d="M32.2579 11.1952C32.2341 11.1815 32.2101 11.1686 32.1864 11.155C27.8437 8.64165 22.3086 8.4579 17.6698 11.1568C10.7858 15.1617 8.44337 24.0203 12.4483 30.9041C13.6704 33.0047 15.345 34.6816 17.2771 35.885C17.4414 35.9891 17.6076 36.0914 17.7774 36.1897C24.6688 40.1822 33.5226 37.8237 37.5149 30.9327C41.507 24.0413 39.1492 15.1877 32.2579 11.1952ZM33.9819 22.4609L31.5689 24.8129C30.8215 25.5412 30.3544 26.979 30.531 28.0077L31.1006 31.3287C31.2771 32.3573 30.6658 32.8015 29.7419 32.3159L26.7594 30.7478C25.8355 30.2622 24.3239 30.2622 23.4001 30.7478L20.4177 32.3159C19.4938 32.8015 18.8823 32.3573 19.0588 31.3287L19.6284 28.0077C19.8049 26.979 19.3378 25.5412 18.5904 24.8129L16.1776 22.4609C15.4301 21.7325 15.6638 21.0137 16.6966 20.8634L20.031 20.3789C21.0638 20.2288 22.2868 19.3403 22.7487 18.4044L24.24 15.3829C24.7019 14.4471 25.4577 14.4471 25.9195 15.3829L27.4109 18.4044C27.8728 19.3403 29.0956 20.2288 30.1286 20.3789L33.463 20.8634C34.4956 21.0137 34.7292 21.7325 33.9819 22.4609Z" fill="#178EA8"/>
</svg>
