<svg width="18" height="18" viewBox="0 0 18 18" fill="none" xmlns="http://www.w3.org/2000/svg">
<path fill-rule="evenodd" clip-rule="evenodd" d="M16 2H15V0.9C15 0.405 14.55 0 14 0C13.45 0 13 0.405 13 0.9V2H5V0.9C5 0.405 4.55 0 4 0C3.45 0 3 0.405 3 0.9V2H2C0.89 2 0.01 2.61 0.01 3.6L0 16.2C0 17.19 0.89 18 2 18H16C17.1 18 18 17.19 18 16.2V3.6C18 2.61 17.1 2 16 2ZM16 15.0909C16 15.5909 15.55 16 15 16H3C2.45 16 2 15.5909 2 15.0909V6H16V15.0909ZM14 10V8H12V10H14ZM8 8H10V10H8V8ZM6 8H4V10H6V8ZM6 12V14H4V12H6ZM10 12H8V14H10V12Z" fill="#6B778C"/>
</svg>
