<svg width="122" height="65" viewBox="0 0 122 66" fill="none" xmlns="http://www.w3.org/2000/svg">
<rect y="35.677" width="10" height="30.3231" rx="5" fill="url(#paint0_linear)"/>
<rect x="64" y="26.6924" width="10" height="39.3077" rx="5" fill="url(#paint1_linear)"/>
<rect x="16" y="26.6924" width="10" height="39.3077" rx="5" fill="url(#paint2_linear)"/>
<rect x="96" y="3.10767" width="10" height="62.8923" rx="5" fill="url(#paint3_linear)"/>
<rect x="32" y="14.3385" width="10" height="51.6615" rx="5" fill="url(#paint4_linear)"/>
<rect x="112" y="0.861572" width="10" height="65.1385" rx="5" fill="url(#paint5_linear)"/>
<rect x="48" y="21.0769" width="10" height="44.9231" rx="5" fill="url(#paint6_linear)"/>
<rect x="80" y="8.72314" width="10" height="57.2769" rx="5" fill="url(#paint7_linear)"/>
<defs>
<linearGradient id="paint0_linear" x1="5" y1="35.677" x2="5" y2="66.0001" gradientUnits="userSpaceOnUse">
<stop stop-color="#FFD7A0"/>
<stop offset="1" stop-color="#FB9333"/>
</linearGradient>
<linearGradient id="paint1_linear" x1="69" y1="26.6924" x2="69" y2="66.0001" gradientUnits="userSpaceOnUse">
<stop stop-color="#FFD7A0"/>
<stop offset="1" stop-color="#FB9333"/>
</linearGradient>
<linearGradient id="paint2_linear" x1="21" y1="26.6924" x2="21" y2="66.0001" gradientUnits="userSpaceOnUse">
<stop stop-color="#FFD7A0"/>
<stop offset="1" stop-color="#FB9333"/>
</linearGradient>
<linearGradient id="paint3_linear" x1="101" y1="3.10767" x2="101" y2="66" gradientUnits="userSpaceOnUse">
<stop stop-color="#FFD7A0"/>
<stop offset="1" stop-color="#FB9333"/>
</linearGradient>
<linearGradient id="paint4_linear" x1="37" y1="14.3385" x2="37" y2="66" gradientUnits="userSpaceOnUse">
<stop stop-color="#FFD7A0"/>
<stop offset="1" stop-color="#FB9333"/>
</linearGradient>
<linearGradient id="paint5_linear" x1="117" y1="0.861572" x2="117" y2="66" gradientUnits="userSpaceOnUse">
<stop stop-color="#FFD7A0"/>
<stop offset="1" stop-color="#FB9333"/>
</linearGradient>
<linearGradient id="paint6_linear" x1="53" y1="21.0769" x2="53" y2="66" gradientUnits="userSpaceOnUse">
<stop stop-color="#FFD7A0"/>
<stop offset="1" stop-color="#FB9333"/>
</linearGradient>
<linearGradient id="paint7_linear" x1="85" y1="8.72314" x2="85" y2="66.0001" gradientUnits="userSpaceOnUse">
<stop stop-color="#FFD7A0"/>
<stop offset="1" stop-color="#FB9333"/>
</linearGradient>
</defs>
</svg>
