<svg width="58" height="54" viewBox="0 0 58 54" fill="none" xmlns="http://www.w3.org/2000/svg">
<path d="M20.5039 53.6998H1.8125C0.874078 53.6998 0.113281 52.939 0.113281 52.0005V31.6099C0.113281 30.6715 0.874078 29.9107 1.8125 29.9107H20.5039C21.4423 29.9107 22.2031 30.6715 22.2031 31.6099V52.0005C22.2031 52.939 21.4423 53.6998 20.5039 53.6998Z" fill="#FB9333"/>
<path d="M20.5039 29.9107H10.3086V53.6998H20.5039C21.4423 53.6998 22.2031 52.939 22.2031 52.0005V31.6099C22.2031 30.6715 21.4423 29.9107 20.5039 29.9107Z" fill="#FB9333"/>
<path d="M52.4675 9.35211L47.9179 7.53961L42.9152 9.35211L41.4726 21.6146C41.4159 22.0965 41.5679 22.5796 41.8903 22.9422C42.2127 23.3048 42.6749 23.5123 43.1601 23.5123H52.2226C52.7078 23.5123 53.1699 23.3048 53.4924 22.9422C53.8149 22.5796 53.9668 22.0965 53.9102 21.6146L52.4675 9.35211Z" fill="#FB9333"/>
<path d="M53.9099 21.6146L52.4672 9.35211L47.9176 7.53961L47.691 7.62174V23.5123H52.2223C52.7075 23.5123 53.1696 23.3048 53.4921 22.9422C53.8146 22.5796 53.9665 22.0964 53.9099 21.6146Z" fill="#FB9333"/>
<path d="M24.4804 21.6146C24.4237 22.0965 24.5758 22.5796 24.8982 22.9422C25.2206 23.3048 25.6827 23.5123 26.1679 23.5123H35.2304C35.7156 23.5123 36.1777 23.3048 36.5002 22.9422C36.8227 22.5796 36.9746 22.0965 36.918 21.6146L35.4753 9.35211L30.8125 6.63336L25.923 9.35211L24.4804 21.6146Z" fill="#FB9333"/>
<path d="M36.9177 21.6146L35.475 9.35211L30.8121 6.63336L30.6989 6.69635V23.5123H35.2301C35.7153 23.5123 36.1774 23.3048 36.4999 22.9422C36.8224 22.5796 36.9743 22.0964 36.9177 21.6146Z" fill="#FB9333"/>
<path d="M51.6447 2.35677C51.5441 1.50093 50.8187 0.856018 49.9571 0.856018H45.4259C44.5643 0.856018 43.8389 1.50093 43.7383 2.35677L42.9153 9.35211H52.4678L51.6447 2.35677Z" fill="#FFAC37"/>
<path d="M51.6442 2.35677C51.5436 1.50093 50.8183 0.856018 49.9567 0.856018H47.691V9.35211H52.4672L51.6442 2.35677Z" fill="#FFAC37"/>
<path d="M32.9649 0.856018H28.4337C27.5721 0.856018 26.8467 1.50093 26.7461 2.35677L25.9232 9.35211H35.4756L34.6526 2.35677C34.5519 1.50093 33.8266 0.856018 32.9649 0.856018Z" fill="#FFAC37"/>
<path d="M34.652 2.35677C34.5514 1.50093 33.8261 0.856018 32.9645 0.856018H30.6989V9.35211H35.475L34.652 2.35677Z" fill="#FFAC37"/>
<path d="M6.91016 43.5045C5.97173 43.5045 5.21094 42.7437 5.21094 41.8052V38.4068C5.21094 37.4684 5.97173 36.7076 6.91016 36.7076C7.84858 36.7076 8.60938 37.4684 8.60938 38.4068V41.8052C8.60938 42.7437 7.84858 43.5045 6.91016 43.5045Z" fill="#FFF8EE"/>
<path d="M13.707 43.5045C12.7686 43.5045 12.0078 42.7437 12.0078 41.8052V38.4068C12.0078 37.4684 12.7686 36.7076 13.707 36.7076C14.6455 36.7076 15.4062 37.4684 15.4062 38.4068V41.8052C15.4062 42.7437 14.6455 43.5045 13.707 43.5045Z" fill="white"/>
<path d="M44.293 53.6998H56.1875C57.1259 53.6998 57.8867 52.939 57.8867 52.0005V24.813C57.8867 23.8746 57.1259 23.1138 56.1875 23.1138H22.2031C21.2647 23.1138 20.5039 23.8746 20.5039 24.813V53.6998H34.0977L38.9688 52.7935L44.293 53.6998Z" fill="#FFAC37"/>
<path d="M56.1875 23.1138H39.1953V52.832L44.293 53.6998H56.1875C57.1259 53.6998 57.8867 52.939 57.8867 52.0005V24.813C57.8867 23.8746 57.1259 23.1138 56.1875 23.1138Z" fill="#FFAC37"/>
<path d="M29 46.9029C28.0616 46.9029 27.3008 46.1421 27.3008 45.2037V41.8052C27.3008 40.8668 28.0616 40.106 29 40.106C29.9384 40.106 30.6992 40.8668 30.6992 41.8052V45.2037C30.6992 46.1421 29.9384 46.9029 29 46.9029Z" fill="#FFF8EE"/>
<path d="M29 36.7076C28.0616 36.7076 27.3008 35.9468 27.3008 35.0084V31.6099C27.3008 30.6715 28.0616 29.9107 29 29.9107C29.9384 29.9107 30.6992 30.6715 30.6992 31.6099V35.0084C30.6992 35.9468 29.9384 36.7076 29 36.7076Z" fill="#FFF8EE"/>
<path d="M49.3906 46.9029C48.4522 46.9029 47.6914 46.1421 47.6914 45.2037V41.8052C47.6914 40.8668 48.4522 40.106 49.3906 40.106C50.329 40.106 51.0898 40.8668 51.0898 41.8052V45.2037C51.0898 46.1421 50.329 46.9029 49.3906 46.9029Z" fill="white"/>
<path d="M49.3906 36.7076C48.4522 36.7076 47.6914 35.9468 47.6914 35.0084V31.6099C47.6914 30.6715 48.4522 29.9107 49.3906 29.9107C50.329 29.9107 51.0898 30.6715 51.0898 31.6099V35.0084C51.0898 35.9468 50.329 36.7076 49.3906 36.7076Z" fill="white"/>
<path d="M35.7969 36.7076C34.8585 36.7076 34.0977 35.9468 34.0977 35.0084V31.6099C34.0977 30.6715 34.8585 29.9107 35.7969 29.9107C36.7353 29.9107 37.4961 30.6715 37.4961 31.6099V35.0084C37.4961 35.9468 36.7353 36.7076 35.7969 36.7076Z" fill="#FFF8EE"/>
<path d="M42.5938 36.7076C41.6553 36.7076 40.8945 35.9468 40.8945 35.0084V31.6099C40.8945 30.6715 41.6553 29.9107 42.5938 29.9107C43.5322 29.9107 44.293 30.6715 44.293 31.6099V35.0084C44.293 35.9468 43.5322 36.7076 42.5938 36.7076Z" fill="white"/>
<path d="M42.5938 40.106H35.7969C34.8585 40.106 34.0977 40.8668 34.0977 41.8052V53.6998H37.4961L39.082 52.567L40.8945 53.6998H44.293V41.8052C44.293 40.8668 43.5322 40.106 42.5938 40.106Z" fill="#FFF8EE"/>
<path d="M42.5938 40.106H39.1953V52.6378L40.8945 53.6998H44.293V41.8052C44.293 40.8668 43.5322 40.106 42.5938 40.106Z" fill="white"/>
<path d="M37.4961 43.5045H40.8945V53.6998H37.4961V43.5045Z" fill="#FFAC37"/>
<path d="M39.1953 43.5045H40.8945V53.6998H39.1953V43.5045Z" fill="#FFAC37"/>
</svg>
