<svg width="32" height="32" viewBox="0 0 32 32" fill="none" xmlns="http://www.w3.org/2000/svg">
<circle cx="16" cy="16" r="12" fill="#0E0E0E" fill-opacity="0.5"/>
<path fill-rule="evenodd" clip-rule="evenodd" d="M16.1113 5.11114C10.0362 5.11114 5.11133 10.036 5.11133 16.1111C5.11133 22.1863 10.0362 27.1111 16.1113 27.1111C22.1865 27.1111 27.1113 22.1863 27.1113 16.1111C27.1113 10.036 22.1865 5.11114 16.1113 5.11114ZM3.11133 16.1111C3.11133 8.93144 8.93163 3.11115 16.1113 3.11115C23.291 3.11115 29.1113 8.93144 29.1113 16.1111C29.1113 23.2908 23.291 29.1111 16.1113 29.1111C8.93163 29.1111 3.11133 23.2908 3.11133 16.1111Z" fill="#6B778C"/>
<path fill-rule="evenodd" clip-rule="evenodd" d="M13.8612 10.785C14.1863 10.611 14.5809 10.63 14.8877 10.8346L21.4332 15.1982C21.7114 15.3837 21.8785 15.6959 21.8785 16.0303C21.8785 16.3646 21.7114 16.6769 21.4332 16.8623L14.8877 21.226C14.5809 21.4305 14.1863 21.4496 13.8612 21.2756C13.536 21.1016 13.333 20.7627 13.333 20.3939V11.6667C13.333 11.2979 13.536 10.959 13.8612 10.785ZM15.333 13.5352V18.5254L19.0757 16.0303L15.333 13.5352Z" fill="white"/>
</svg>
