<svg width="72" height="72" viewBox="0 0 72 72" fill="none" xmlns="http://www.w3.org/2000/svg">
<circle cx="35.5" cy="36.5" r="25.5" fill="#0E0E0E" fill-opacity="0.5"/>
<path fill-rule="evenodd" clip-rule="evenodd" d="M36.25 11.5C22.581 11.5 11.5 22.581 11.5 36.25C11.5 49.919 22.581 61 36.25 61C49.919 61 61 49.919 61 36.25C61 22.581 49.919 11.5 36.25 11.5ZM7 36.25C7 20.0957 20.0957 7 36.25 7C52.4043 7 65.5 20.0957 65.5 36.25C65.5 52.4043 52.4043 65.5 36.25 65.5C20.0957 65.5 7 52.4043 7 36.25Z" fill="#6B778C"/>
<path fill-rule="evenodd" clip-rule="evenodd" d="M31.1883 24.2662C31.9199 23.8747 32.8076 23.9176 33.4981 24.3779L48.2253 34.1961C48.8513 34.6134 49.2273 35.3159 49.2273 36.0682C49.2273 36.8205 48.8513 37.523 48.2253 37.9403L33.4981 47.7585C32.8076 48.2188 31.9199 48.2617 31.1883 47.8701C30.4567 47.4786 30 46.7162 30 45.8864V26.25C30 25.4202 30.4567 24.6578 31.1883 24.2662ZM34.5 30.4542V41.6822L42.921 36.0682L34.5 30.4542Z" fill="white"/>
</svg>
