<svg width="16" height="4" viewBox="0 0 16 4" fill="none" xmlns="http://www.w3.org/2000/svg">
<path fill-rule="evenodd" clip-rule="evenodd" d="M2 3.05176e-05C0.9 3.05176e-05 0 0.90003 0 2.00003C0 3.10003 0.9 4.00003 2 4.00003C3.1 4.00003 4 3.10003 4 2.00003C4 0.90003 3.1 3.05176e-05 2 3.05176e-05ZM14 3.05176e-05C12.9 3.05176e-05 12 0.90003 12 2.00003C12 3.10003 12.9 4.00003 14 4.00003C15.1 4.00003 16 3.10003 16 2.00003C16 0.90003 15.1 3.05176e-05 14 3.05176e-05ZM6 2.00003C6 0.90003 6.9 3.05176e-05 8 3.05176e-05C9.1 3.05176e-05 10 0.90003 10 2.00003C10 3.10003 9.1 4.00003 8 4.00003C6.9 4.00003 6 3.10003 6 2.00003Z" fill="#172B4D"/>
</svg>
