<svg width="22" height="15" viewBox="0 0 22 15" fill="none" xmlns="http://www.w3.org/2000/svg">
<g clip-path="url(#clip0)">
<path d="M13.981 6.19357L17.7445 1.6936C18.0245 1.35879 17.9945 0.844144 17.6775 0.544111C17.3605 0.244079 16.8765 0.272272 16.5965 0.607083L12.833 5.10706C12.553 5.44187 12.583 5.95651 12.9 6.25654C13.217 6.55657 13.7009 6.52838 13.981 6.19357Z" fill="#FF9D00"/>
<path d="M15.4479 13.3962L20.8955 14.5835C21.3354 14.6794 21.7611 14.3987 21.8463 13.9565C21.9315 13.5143 21.6438 13.0781 21.2039 12.9823L15.7563 11.7949C15.3163 11.699 14.8906 11.9798 14.8054 12.4219C14.7203 12.8641 15.0079 13.3003 15.4479 13.3962Z" fill="#FF9D00"/>
<path d="M15.21 9.68808L20.6343 8.3767C21.0718 8.27094 21.3502 7.82839 21.2562 7.38825C21.1622 6.94811 20.7313 6.67705 20.2938 6.78281L14.8695 8.09419C14.4321 8.19996 14.1537 8.6425 14.2477 9.08264C14.3417 9.52278 14.7726 9.79385 15.21 9.68808Z" fill="#FF9D00"/>
<path d="M4.51123 10.0348L7.20781 14.9999H10.3284L6.46498 7.88062L4.51123 10.0348Z" fill="#FF9D00"/>
<path d="M13.4907 15C14.2474 15 14.73 14.1919 14.371 13.5257L10.1881 5.76191C9.86089 5.15453 9.03142 5.05316 8.56755 5.56387L7.57422 6.65746L12.1024 15H13.4907Z" fill="#FF9D00"/>
<path d="M1.51897 13.3276C0.935421 13.9701 1.39127 14.9999 2.25921 14.9999H5.43047L3.39871 11.2581L1.51897 13.3276Z" fill="#FF9D00"/>
</g>
<defs>
<clipPath id="clip0">
<rect width="22" height="15" fill="white"/>
</clipPath>
</defs>
</svg>
