<svg width="1366" height="58" viewBox="0 0 1366 58" fill="none" xmlns="http://www.w3.org/2000/svg">
<rect width="1366" height="58" fill="#59C8E0"/>
<g opacity="0.6">
<g opacity="0.6">
<g opacity="0.6">
<path opacity="0.6" d="M97.8051 0C97.9451 1.46224 98.0744 2.93391 98.2144 4.39615C98.2359 4.61312 102.006 4.45275 102.017 4.62256C101.877 3.16032 101.748 1.68865 101.608 0.226412C101.586 0.00943447 97.8158 0.169808 97.8051 0Z" fill="#F8F8F8"/>
</g>
</g>
</g>
<g opacity="0.6">
<g opacity="0.6">
<path opacity="0.6" d="M129.347 40.6646C129.045 41.8909 128.733 43.1079 128.431 44.3343C128.41 44.4286 131.178 44.9569 131.167 45.0135C131.469 43.7871 131.781 42.5702 132.083 41.3438C132.104 41.2494 129.336 40.7212 129.347 40.6646Z" fill="#F8F8F8"/>
</g>
</g>
<g opacity="0.6">
<g opacity="0.6">
<g opacity="0.6">
<path opacity="0.6" d="M50.0146 4.87882C50.6502 6.19955 51.2857 7.52028 51.9213 8.84101C51.932 8.85988 54.582 7.85046 54.5712 7.83159C53.9356 6.51086 53.3001 5.19013 52.6645 3.8694C52.6645 3.85053 50.0038 4.85995 50.0146 4.87882Z" fill="#F8F8F8"/>
</g>
</g>
</g>
<g opacity="0.6">
<g opacity="0.6">
<path opacity="0.6" d="M88.7377 14.6163C87.4774 12.9937 86.2171 11.3711 84.9675 9.74849C84.9029 9.66359 80.0555 12.4371 80.0339 12.4088C81.2943 14.0314 82.5546 15.654 83.8041 17.2767C83.8796 17.3616 88.7162 14.588 88.7377 14.6163Z" fill="#F8F8F8"/>
</g>
</g>
<g opacity="0.6">
<g opacity="0.6">
<g opacity="0.6">
<path opacity="0.6" d="M67.1525 41.513C67.0878 39.4187 66.0645 37.5225 64.2764 36.1641C64.1794 36.0886 62.1004 37.4942 61.9065 37.6169C61.7234 37.7301 59.6336 39.1546 59.569 39.1074C61.3679 40.4753 62.3805 42.3715 62.4451 44.4564C62.4451 44.4375 63.2422 43.9847 63.1453 44.0413C63.7054 43.7017 64.2656 43.3526 64.815 43.0036C65.3643 42.6545 65.9245 42.3055 66.4738 41.9564C66.5708 41.8998 67.1525 41.5979 67.1525 41.513Z" fill="white"/>
</g>
</g>
</g>
<g opacity="0.6">
<g opacity="0.6">
<g opacity="0.6">
<path opacity="0.6" d="M26.747 35.5011C27.8888 34.7558 29.0199 34.0106 30.1617 33.2653C30.2695 33.1993 29.7416 31.8314 29.6985 31.6804C29.6555 31.5389 29.1061 30.1616 29.1923 30.105C28.0504 30.8502 26.9194 31.5955 25.7775 32.3408C25.6698 32.4068 26.1976 33.7747 26.2407 33.9257C26.2946 34.0672 26.844 35.4351 26.747 35.5011Z" fill="#F8F8F8"/>
</g>
</g>
</g>
<g opacity="0.6">
<g opacity="0.6">
<path opacity="0.6" d="M69.3177 30.2087C70.6642 29.1427 72.0215 28.0861 73.368 27.0201C73.4757 26.9351 72.8833 25.605 72.8294 25.454C72.7756 25.3031 72.1508 23.9824 72.2477 23.8975C70.9012 24.9635 69.544 26.0201 68.1974 27.0861C68.0897 27.171 68.6822 28.5012 68.736 28.6521C68.8007 28.803 69.4255 30.1332 69.3177 30.2087Z" fill="#F8F8F8"/>
</g>
</g>
<g opacity="0.6">
<g opacity="0.6">
<path opacity="0.6" d="M180.937 43.5148C182.283 42.4488 183.64 41.3922 184.987 40.3262C185.095 40.2413 184.502 38.9111 184.448 38.7602C184.394 38.6092 183.77 37.2885 183.867 37.2036C182.52 38.2696 181.163 39.3262 179.816 40.3922C179.709 40.4771 180.301 41.8073 180.355 41.9582C180.42 42.1092 181.044 43.4394 180.937 43.5148Z" fill="#F8F8F8"/>
</g>
</g>
<g opacity="0.6">
<path opacity="0.6" d="M129.251 25.558C132.375 24.0958 134.25 21.2939 134.11 18.2751C134.088 17.8506 131.492 16.6053 131.072 16.3412C130.35 15.8884 129.628 15.445 128.896 15.0016C128.767 14.9261 127.991 14.5488 127.98 14.4639C128.12 17.4827 126.246 20.2845 123.122 21.7468C123.327 21.6524 125.869 23.5014 126.16 23.6807C126.483 23.8788 128.907 25.7184 129.251 25.558Z" fill="white"/>
</g>
<g opacity="0.6">
<g opacity="0.6">
<path opacity="0.6" d="M1.86356 37.8591C3.98565 37.2837 5.5476 35.7459 5.92462 33.8592C5.97848 33.5573 5.18135 32.6988 5.00899 32.4347C4.79355 32.1045 4.56734 31.7649 4.34113 31.4347C4.28727 31.3592 4.03951 31.0951 4.06105 31.0291C3.69481 32.9158 2.12209 34.4535 0 35.029C0.258529 34.9629 1.55117 37.944 1.86356 37.8591Z" fill="#F8F8F8"/>
</g>
</g>
<g opacity="0.6">
<g opacity="0.6">
<g opacity="0.6">
<path opacity="0.6" d="M84 28.9725C85.9605 28.1234 88.2657 28.3499 89.8815 29.5668C89.8384 29.5291 89.7414 29.0951 89.7414 29.1046C89.623 28.7366 89.5045 28.3593 89.3752 27.9914C89.2567 27.6235 89.1274 27.2555 88.9982 26.8782C88.9659 26.7744 88.9228 26.4914 88.8366 26.4254C87.2316 25.2178 84.9156 24.982 82.9551 25.831C82.7289 25.9254 84.1615 28.9065 84 28.9725Z" fill="#F8F8F8"/>
</g>
</g>
</g>
<g opacity="0.6">
<g opacity="0.6">
<g opacity="0.6">
<path opacity="0.6" d="M59.4699 57.7646C59.3299 56.3024 59.2006 54.8307 59.0606 53.3685C59.039 53.1515 55.2688 53.3119 55.2581 53.1421C55.3981 54.6043 55.5274 56.076 55.6674 57.5382C55.6889 57.7552 59.4591 57.5948 59.4699 57.7646Z" fill="white"/>
</g>
</g>
</g>
<g opacity="0.6">
<path opacity="0.6" d="M107.181 28.8308C108.259 27.812 109.788 27.3591 111.329 27.595C111.232 27.5761 110.984 26.529 110.952 26.4158C110.909 26.2837 110.693 25.2648 110.542 25.246C109.002 25.0007 107.472 25.4535 106.395 26.4818C106.298 26.5761 106.729 27.529 106.772 27.661C106.815 27.7837 107.268 28.7365 107.181 28.8308Z" fill="#F8F8F8"/>
</g>
<g opacity="0.6">
<path opacity="0.6" d="M152.942 35.6624C154.019 34.6435 155.549 34.1907 157.089 34.4265C156.992 34.4077 156.745 33.3605 156.712 33.2473C156.669 33.1152 156.454 32.0964 156.303 32.0775C154.762 31.8322 153.233 32.2851 152.156 33.3133C152.059 33.4077 152.49 34.3605 152.533 34.4926C152.576 34.6152 153.028 35.568 152.942 35.6624Z" fill="#F8F8F8"/>
</g>
<g opacity="0.6">
<g opacity="0.6">
<g opacity="0.6">
<path opacity="0.6" d="M51.3613 28.284C51.7922 26.7179 51.2105 25.1519 49.8102 24.1425C49.724 24.0765 48.6145 24.5953 48.4852 24.6425C48.3559 24.6897 47.2464 25.2274 47.171 25.1708C48.5714 26.1802 49.1638 27.7462 48.7222 29.3122C48.7545 29.199 49.8963 28.8688 50.0472 28.8122C50.2303 28.7462 51.3182 28.4538 51.3613 28.284Z" fill="#F8F8F8"/>
</g>
</g>
</g>
<g opacity="0.6">
<g opacity="0.6">
<path opacity="0.6" d="M110.713 12.8604C111.822 12.4924 112.932 12.1245 114.041 11.7566C114.009 11.766 113.32 10.8227 113.255 10.7472C113.19 10.6623 112.522 9.7189 112.447 9.74721C111.338 10.1151 110.228 10.483 109.118 10.851C109.151 10.8415 109.84 11.7849 109.905 11.8604C109.98 11.9453 110.637 12.8792 110.713 12.8604Z" fill="#F8F8F8"/>
</g>
</g>
<g opacity="0.6">
<g opacity="0.6">
<path opacity="0.6" d="M158.675 9.17041C159.785 8.8025 160.894 8.43458 162.004 8.06666C161.971 8.07609 161.282 7.13271 161.217 7.05724C161.153 6.97234 160.485 6.02896 160.409 6.05726C159.3 6.42518 158.19 6.7931 157.081 7.16102C157.113 7.15158 157.803 8.09496 157.867 8.17043C157.943 8.25534 158.6 9.18928 158.675 9.17041Z" fill="#F8F8F8"/>
</g>
</g>
<g opacity="0.6">
<g opacity="0.6">
<path opacity="0.6" d="M48.0106 42.3025C49.7772 41.0573 50.8544 39.2931 51.016 37.3592C51.0267 37.2554 49.4217 36.8026 49.2601 36.746C49.1093 36.6989 47.4827 36.246 47.4935 36.1611C47.3319 38.1045 46.2547 39.8592 44.4881 41.1044C44.5958 41.029 46.0608 41.6516 46.2439 41.7176C46.4378 41.7837 47.8382 42.4157 48.0106 42.3025Z" fill="#F8F8F8"/>
</g>
</g>
<g opacity="0.6">
<g opacity="0.6">
<g opacity="0.6">
<path opacity="0.6" d="M24.42 46.3401C24.0106 45.1514 23.6013 43.9627 23.1919 42.7646C23.2674 42.9722 20.7036 43.9439 20.7898 44.1797C21.1991 45.3684 21.6085 46.557 22.0178 47.7551C21.9424 47.5476 24.4954 46.5853 24.42 46.3401Z" fill="#F8F8F8"/>
</g>
</g>
</g>
<g opacity="0.6">
<g opacity="0.6">
<g opacity="0.6">
<path opacity="0.6" d="M114.248 53.3875C116.025 52.3781 117.038 50.6705 116.941 48.8687C116.93 48.6423 114.151 48.614 114.14 48.4253C114.237 50.2271 113.225 51.9347 111.447 52.9441C111.609 52.8497 112.632 53.1422 112.848 53.1799C113.085 53.2177 114.033 53.5101 114.248 53.3875Z" fill="white"/>
</g>
</g>
</g>
<g opacity="0.6">
<g opacity="0.6">
<g opacity="0.6">
<path opacity="0.6" d="M16.6756 22.8031C18.216 21.7843 19.7564 20.7748 21.2968 19.756C21.3829 19.6994 19.1854 17.0674 19.2285 17.0391C17.6881 18.0579 16.1477 19.0673 14.6073 20.0862C14.5212 20.1428 16.7186 22.7748 16.6756 22.8031Z" fill="#F8F8F8"/>
</g>
</g>
</g>
<g opacity="0.6">
<g opacity="0.6">
<g opacity="0.6">
<path opacity="0.6" d="M15.9018 8.35975C17.4422 7.3409 18.9826 6.33149 20.523 5.31264C20.6092 5.25603 18.4117 2.624 18.4548 2.5957C16.9144 3.61455 15.374 4.62397 13.8336 5.64282C13.7474 5.69942 15.9449 8.33145 15.9018 8.35975Z" fill="#F8F8F8"/>
</g>
</g>
</g>
<g opacity="0.6">
<g opacity="0.6">
<path opacity="0.6" d="M66.808 3.26528C68.036 3.52 69.264 3.77471 70.5028 4.02942C70.4166 4.01056 71.0522 1.5955 70.9337 1.57664C69.7057 1.32192 68.4777 1.06721 67.2389 0.8125C67.325 0.831368 66.6787 3.24642 66.808 3.26528Z" fill="#F8F8F8"/>
</g>
</g>
<g opacity="0.6">
<g opacity="0.6">
<g opacity="0.6">
<path opacity="0.6" d="M1269.54 0C1269.4 1.46224 1269.27 2.93391 1269.13 4.39615C1269.11 4.61312 1265.41 4.45275 1265.4 4.62256C1265.54 3.16032 1265.67 1.68865 1265.81 0.226412C1265.83 0.00943447 1269.53 0.169808 1269.54 0Z" fill="#F8F8F8"/>
</g>
</g>
</g>
<g opacity="0.6">
<g opacity="0.6">
<path opacity="0.6" d="M1238.59 40.6646C1238.89 41.8909 1239.2 43.1079 1239.49 44.3343C1239.51 44.4286 1236.8 44.9569 1236.81 45.0135C1236.51 43.7871 1236.21 42.5702 1235.91 41.3438C1235.89 41.2494 1238.6 40.7212 1238.59 40.6646Z" fill="#F8F8F8"/>
</g>
</g>
<g opacity="0.6">
<g opacity="0.6">
<g opacity="0.6">
<path opacity="0.6" d="M1316.42 4.87882C1315.79 6.19955 1315.17 7.52028 1314.55 8.84101C1314.54 8.85988 1311.94 7.85046 1311.95 7.83159C1312.57 6.51086 1313.19 5.19013 1313.82 3.8694C1313.82 3.85053 1316.43 4.85995 1316.42 4.87882Z" fill="#F8F8F8"/>
</g>
</g>
</g>
<g opacity="0.6">
<g opacity="0.6">
<path opacity="0.6" d="M1278.43 14.6163C1279.67 12.9937 1280.9 11.3711 1282.13 9.74849C1282.19 9.66359 1286.95 12.4371 1286.97 12.4088C1285.73 14.0314 1284.5 15.654 1283.27 17.2767C1283.2 17.3616 1278.45 14.588 1278.43 14.6163Z" fill="#F8F8F8"/>
</g>
</g>
<g opacity="0.6">
<g opacity="0.6">
<g opacity="0.6">
<path opacity="0.6" d="M1299.6 41.513C1299.67 39.4187 1300.67 37.5225 1302.43 36.1641C1302.52 36.0886 1304.56 37.4942 1304.75 37.6169C1304.93 37.7301 1306.98 39.1546 1307.04 39.1074C1305.28 40.4753 1304.29 42.3715 1304.22 44.4564C1304.22 44.4375 1303.44 43.9847 1303.54 44.0413C1302.99 43.7017 1302.44 43.3526 1301.9 43.0036C1301.36 42.6545 1300.81 42.3055 1300.27 41.9564C1300.18 41.8998 1299.6 41.5979 1299.6 41.513Z" fill="white"/>
</g>
</g>
</g>
<g opacity="0.6">
<g opacity="0.6">
<g opacity="0.6">
<path opacity="0.6" d="M1339.24 35.5011C1338.12 34.7558 1337.01 34.0106 1335.89 33.2653C1335.79 33.1993 1336.3 31.8314 1336.35 31.6804C1336.39 31.5389 1336.93 30.1616 1336.84 30.105C1337.96 30.8502 1339.07 31.5955 1340.19 32.3408C1340.3 32.4068 1339.78 33.7747 1339.74 33.9257C1339.69 34.0672 1339.15 35.4351 1339.24 35.5011Z" fill="#F8F8F8"/>
</g>
</g>
</g>
<g opacity="0.6">
<g opacity="0.6">
<path opacity="0.6" d="M1297.48 30.2087C1296.16 29.1427 1294.83 28.0861 1293.51 27.0201C1293.4 26.9351 1293.98 25.605 1294.04 25.454C1294.09 25.3031 1294.7 23.9824 1294.61 23.8975C1295.93 24.9635 1297.26 26.0201 1298.58 27.0861C1298.69 27.171 1298.1 28.5012 1298.05 28.6521C1297.99 28.803 1297.38 30.1332 1297.48 30.2087Z" fill="#F8F8F8"/>
</g>
</g>
<g opacity="0.6">
<g opacity="0.6">
<path opacity="0.6" d="M1187.99 43.5148C1186.67 42.4488 1185.33 41.3922 1184.01 40.3262C1183.91 40.2413 1184.49 38.9111 1184.54 38.7602C1184.59 38.6092 1185.21 37.2885 1185.11 37.2036C1186.43 38.2696 1187.76 39.3262 1189.08 40.3922C1189.19 40.4771 1188.61 41.8073 1188.56 41.9582C1188.49 42.1092 1187.88 43.4394 1187.99 43.5148Z" fill="#F8F8F8"/>
</g>
</g>
<g opacity="0.6">
<path opacity="0.6" d="M1238.69 25.558C1235.62 24.0958 1233.78 21.2939 1233.92 18.2751C1233.94 17.8506 1236.49 16.6053 1236.9 16.3412C1237.61 15.8884 1238.32 15.445 1239.04 15.0016C1239.16 14.9261 1239.92 14.5488 1239.93 14.4639C1239.8 17.4827 1241.64 20.2845 1244.7 21.7468C1244.5 21.6524 1242.01 23.5014 1241.72 23.6807C1241.4 23.8788 1239.03 25.7184 1238.69 25.558Z" fill="white"/>
</g>
<g opacity="0.6">
<g opacity="0.6">
<path opacity="0.6" d="M1363.65 37.8594C1361.57 37.2839 1360.04 35.7462 1359.67 33.8594C1359.61 33.5576 1360.4 32.6991 1360.57 32.4349C1360.78 32.1047 1361 31.7651 1361.22 31.435C1361.27 31.3595 1361.52 31.0953 1361.5 31.0293C1361.85 32.9161 1363.4 34.4538 1365.48 35.0292C1365.23 34.9632 1363.96 37.9443 1363.65 37.8594Z" fill="#F8F8F8"/>
</g>
</g>
<g opacity="0.6">
<g opacity="0.6">
<g opacity="0.6">
<path opacity="0.6" d="M1283.08 28.9725C1281.15 28.1234 1278.89 28.3499 1277.31 29.5668C1277.35 29.5291 1277.45 29.0951 1277.45 29.1046C1277.56 28.7366 1277.68 28.3593 1277.81 27.9914C1277.92 27.6235 1278.05 27.2555 1278.17 26.8782C1278.21 26.7744 1278.25 26.4914 1278.33 26.4254C1279.91 25.2178 1282.18 24.982 1284.1 25.831C1284.32 25.9254 1282.92 28.9065 1283.08 28.9725Z" fill="#F8F8F8"/>
</g>
</g>
</g>
<g opacity="0.6">
<g opacity="0.6">
<g opacity="0.6">
<path opacity="0.6" d="M1307.14 57.7646C1307.28 56.3024 1307.41 54.8307 1307.54 53.3685C1307.56 53.1515 1311.26 53.3119 1311.27 53.1421C1311.14 54.6043 1311.01 56.076 1310.87 57.5382C1310.85 57.7552 1307.15 57.5948 1307.14 57.7646Z" fill="white"/>
</g>
</g>
</g>
<g opacity="0.6">
<path opacity="0.6" d="M1260.34 28.8308C1259.28 27.812 1257.78 27.3591 1256.27 27.595C1256.36 27.5761 1256.61 26.529 1256.64 26.4158C1256.68 26.2837 1256.89 25.2648 1257.04 25.246C1258.55 25.0007 1260.05 25.4535 1261.11 26.4818C1261.2 26.5761 1260.78 27.529 1260.74 27.661C1260.7 27.7837 1260.25 28.7365 1260.34 28.8308Z" fill="#F8F8F8"/>
</g>
<g opacity="0.6">
<path opacity="0.6" d="M1215.45 35.6624C1214.39 34.6435 1212.89 34.1907 1211.38 34.4265C1211.47 34.4077 1211.72 33.3605 1211.75 33.2473C1211.79 33.1152 1212 32.0964 1212.15 32.0775C1213.66 31.8322 1215.16 32.2851 1216.22 33.3133C1216.31 33.4077 1215.89 34.3605 1215.85 34.4926C1215.81 34.6152 1215.36 35.568 1215.45 35.6624Z" fill="#F8F8F8"/>
</g>
<g opacity="0.6">
<g opacity="0.6">
<g opacity="0.6">
<path opacity="0.6" d="M1315.1 28.284C1314.67 26.7179 1315.24 25.1519 1316.62 24.1425C1316.7 24.0765 1317.79 24.5953 1317.92 24.6425C1318.04 24.6897 1319.13 25.2274 1319.21 25.1708C1317.83 26.1802 1317.25 27.7462 1317.68 29.3122C1317.65 29.199 1316.53 28.8688 1316.39 28.8122C1316.21 28.7462 1315.14 28.4538 1315.1 28.284Z" fill="#F8F8F8"/>
</g>
</g>
</g>
<g opacity="0.6">
<g opacity="0.6">
<path opacity="0.6" d="M1256.87 12.8604C1255.78 12.4924 1254.7 12.1245 1253.61 11.7566C1253.64 11.766 1254.32 10.8227 1254.38 10.7472C1254.44 10.6623 1255.1 9.7189 1255.17 9.74721C1256.26 10.1151 1257.35 10.483 1258.44 10.851C1258.41 10.8415 1257.73 11.7849 1257.67 11.8604C1257.59 11.9453 1256.95 12.8792 1256.87 12.8604Z" fill="#F8F8F8"/>
</g>
</g>
<g opacity="0.6">
<g opacity="0.6">
<path opacity="0.6" d="M1209.82 9.17041C1208.74 8.8025 1207.65 8.43458 1206.56 8.06666C1206.59 8.07609 1207.27 7.13271 1207.33 7.05724C1207.39 6.97234 1208.05 6.02896 1208.12 6.05726C1209.21 6.42518 1210.3 6.7931 1211.39 7.16102C1211.36 7.15158 1210.68 8.09496 1210.62 8.17043C1210.54 8.25534 1209.9 9.18928 1209.82 9.17041Z" fill="#F8F8F8"/>
</g>
</g>
<g opacity="0.6">
<g opacity="0.6">
<path opacity="0.6" d="M1318.38 42.3025C1316.65 41.0573 1315.59 39.2931 1315.43 37.3592C1315.42 37.2554 1317 36.8026 1317.16 36.746C1317.3 36.6989 1318.9 36.246 1318.89 36.1611C1319.05 38.1045 1320.11 39.8592 1321.84 41.1044C1321.73 41.029 1320.3 41.6516 1320.12 41.7176C1319.93 41.7837 1318.55 42.4157 1318.38 42.3025Z" fill="#F8F8F8"/>
</g>
</g>
<g opacity="0.6">
<g opacity="0.6">
<g opacity="0.6">
<path opacity="0.6" d="M1341.52 46.3401C1341.93 45.1514 1342.33 43.9627 1342.73 42.7646C1342.65 42.9722 1345.17 43.9439 1345.09 44.1797C1344.68 45.3684 1344.28 46.557 1343.88 47.7551C1343.95 47.5476 1341.45 46.5853 1341.52 46.3401Z" fill="#F8F8F8"/>
</g>
</g>
</g>
<g opacity="0.6">
<g opacity="0.6">
<g opacity="0.6">
<path opacity="0.6" d="M1253.41 53.3875C1251.66 52.3781 1250.67 50.6705 1250.76 48.8687C1250.77 48.6423 1253.5 48.614 1253.51 48.4253C1253.42 50.2271 1254.41 51.9347 1256.15 52.9441C1255.99 52.8497 1254.99 53.1422 1254.78 53.1799C1254.55 53.2177 1253.62 53.5101 1253.41 53.3875Z" fill="white"/>
</g>
</g>
</g>
<g opacity="0.6">
<g opacity="0.6">
<g opacity="0.6">
<path opacity="0.6" d="M1349.12 22.8031C1347.61 21.7843 1346.1 20.7748 1344.59 19.756C1344.5 19.6994 1346.66 17.0674 1346.62 17.0391C1348.13 18.0579 1349.64 19.0673 1351.15 20.0862C1351.23 20.1428 1349.08 22.7748 1349.12 22.8031Z" fill="#F8F8F8"/>
</g>
</g>
</g>
<g opacity="0.6">
<g opacity="0.6">
<g opacity="0.6">
<path opacity="0.6" d="M1349.88 8.35975C1348.37 7.3409 1346.86 6.33149 1345.35 5.31264C1345.26 5.25603 1347.42 2.624 1347.38 2.5957C1348.89 3.61455 1350.4 4.62397 1351.91 5.64282C1351.99 5.69942 1349.84 8.33145 1349.88 8.35975Z" fill="#F8F8F8"/>
</g>
</g>
</g>
<g opacity="0.6">
<g opacity="0.6">
<path opacity="0.6" d="M1299.94 3.26528C1298.74 3.52 1297.53 3.77471 1296.32 4.02942C1296.4 4.01056 1295.78 1.5955 1295.9 1.57664C1297.1 1.32192 1298.3 1.06721 1299.52 0.8125C1299.44 0.831368 1300.07 3.24642 1299.94 3.26528Z" fill="#F8F8F8"/>
</g>
</g>
</svg>
